<svg xmlns="http://www.w3.org/2000/svg" viewBox="0 0 100 100">
    <rect width="100" height="100" fill="#ffffff"/>
    <path 
        fill="#000000" 
        fill-rule="evenodd" 
        clip-rule="evenodd"
        d="M50 0C22.386 0 0 22.386 0 50s22.386 50 50 50 50-22.386 50-50S77.614 0 50 0zm0 8c23.196 0 42 18.804 42 42S73.196 92 50 92 8 73.196 8 50 26.804 8 50 8zM30 25c-2.761 0-5 2.239-5 5v40c0 2.761 2.239 5 5 5h40c2.761 0 5-2.239 5-5V30c0-2.761-2.239-5-5-5H30zm0 5h40v40H30V30zm10 5c-2.761 0-5 2.239-5 5v20c0 2.761 2.239 5 5 5h20c2.761 0 5-2.239 5-5V40c0-2.761-2.239-5-5-5H40zm0 5h20v20H40V40z"
    />
    <circle cx="50" cy="50" r="6" fill="#000000" opacity="0.8"/>
</svg>
